<svg width="464" height="464" viewBox="0 0 464 464" fill="none" xmlns="http://www.w3.org/2000/svg">
<path d="M210.664 464C218.027 463.992 223.992 458.027 224 450.664V173.336C223.992 165.973 218.027 160.008 210.664 160H184C161.918 160.027 144.027 177.918 144 200V397.336C144.039 434.137 173.863 463.961 210.664 464Z" fill="#228B22"/>
<path d="M266.352 118.672C265.684 114.84 262.371 112.031 258.48 112H205.52C201.625 112.031 198.312 114.844 197.648 118.68L193.441 144H270.559L266.352 118.672Z" fill="#228B22"/>
<path d="M253.336 464C290.137 463.961 319.961 434.137 320 397.336V200C319.973 177.918 302.082 160.027 280 160H253.336C245.973 160.008 240.008 165.973 240 173.336V450.664C240.008 458.027 245.973 463.992 253.336 464Z" fill="#228B22"/>
<path d="M344 0C294.398 0.199219 249.973 30.7305 232 76.9609C211.242 22.9961 154.957 -8.49219 98.1133 2.05469C41.2656 12.6016 0.0195312 62.1836 0 120H16C16.0234 67.2266 55.5508 22.8281 107.965 16.6992C160.383 10.5703 209.086 44.6562 221.281 96H242.719C254.914 44.6562 303.617 10.5703 356.035 16.6992C408.449 22.8281 447.977 67.2266 448 120H464C463.922 53.7578 410.242 0.078125 344 0Z" fill="#228B22"/>
<path d="M429.68 226.32L418.32 237.68L360.961 180.32L336 205.359V200C336.016 194.828 335.289 189.684 333.84 184.719L355.281 163.281C358.434 160.188 363.484 160.188 366.641 163.281L429.68 226.32Z" fill="#228B22"/>
<path d="M429.68 306.32L418.32 317.68L360.961 260.32L336 285.359V262.641L355.281 243.281C358.434 240.188 363.484 240.188 366.641 243.281L429.68 306.32Z" fill="#228B22"/>
<path d="M429.68 386.32L418.32 397.68L360.961 340.32L336 365.359V342.641L355.281 323.281C358.434 320.188 363.484 320.188 366.641 323.281L429.68 386.32Z" fill="#228B22"/>
<path d="M130.559 183.199C128.848 188.637 127.984 194.301 128 200V203.359L104.961 180.32L47.0391 238.32L35.6797 226.961L99.2812 163.281C102.434 160.188 107.484 160.188 110.641 163.281L130.559 183.199Z" fill="#228B22"/>
<path d="M128 260.641V283.359L104.961 260.32L47.0391 318.32L35.6797 306.961L99.2812 243.281C102.434 240.188 107.484 240.188 110.641 243.281L128 260.641Z" fill="#228B22"/>
<path d="M128 340.641V363.359L104.961 340.32L47.0391 398.32L35.6797 386.961L99.2812 323.281C102.434 320.188 107.484 320.188 110.641 323.281L128 340.641Z" fill="#228B22"/>
</svg>
