<svg width="67" height="40" viewBox="0 0 67 40" fill="none" xmlns="http://www.w3.org/2000/svg">
<path d="M11.602 4.679C11.7489 2.77074 13.8795 0.784946 16.0844 0.63785C18.2894 0.49225 20.422 0.712894 19.0979 2.25416C17.7746 3.79692 17.3343 5.26863 17.9952 5.04948C18.6584 4.8261 21.3029 3.28433 29.2403 4.5344C30.269 4.8261 34.531 1.37258 40.3381 1.29903C46.1429 1.22549 50.4057 2.88119 56.5062 19.3235C57.0936 20.7765 61.2098 24.1568 63.4147 25.7721C65.6184 27.3921 66.4983 29.2017 66.5 32.4368C66.5045 36.9638 60.0343 39.2149 46.1439 39.1406C32.2533 39.0678 24.9035 36.8 24.9035 36.8C40.5577 38.4886 64.5214 39.4228 64.5214 32.1411C64.5214 26.995 57.4606 25.0431 55.476 25.1144C53.492 25.1892 52.0948 28.274 47.1721 26.5113C46.3626 26.4377 46.8031 27.614 47.4663 28.3485C48.1272 29.082 47.6124 29.9658 45.0404 29.9658C42.4687 29.9658 34.7729 30.0394 33.1463 29.9658C31.5181 29.8913 30.1947 27.0259 35.4859 26.8045C40.1102 26.882 32.4884 25.3652 31.5181 21.3662C31.3413 20.3871 29.3141 20.3343 27.5495 20.3392C22.3694 20.3465 18.9518 29.8613 17.8481 29.8975C16.7471 29.9349 13.3657 30.3016 13.4395 28.8322C13.5123 27.362 16.3044 28.0241 16.8935 27.2149C17.4816 26.4086 19.3924 23.3495 18.7299 21.9533C18.0693 20.5596 15.5701 16.6606 12.6309 16.2221C9.69176 15.779 2.04725 18.0573 0.798683 16.2221C-0.450885 14.3841 2.48979 13.3519 4.76728 9.08889C5.72216 6.95899 6.97148 4.75405 11.602 4.679Z" fill="#228B22"/>
</svg>
