<svg width="72" height="72" viewBox="0 0 72 72" fill="none" xmlns="http://www.w3.org/2000/svg">
<path d="M58 36C58 48.1502 48.1502 58 36 58M58 36C58 23.8497 48.1502 14 36 14M58 36H69M36 58C23.8497 58 14 48.1502 14 36M36 58V69M36 14C23.8497 14 14 23.8497 14 36M36 14V3M14 36H3M69 30.5V41.5M3 30.5V41.5M30.5 3H41.5M30.5 69H41.5M55.4469 8.77573L63.225 16.5539M8.77573 55.4469L16.5539 63.225M59.3358 12.6644L51.5573 20.4426M20.4453 51.5547L12.6671 59.3328M8.77573 16.5531L16.5539 8.77489M55.4469 63.2243L63.225 55.4462M12.6644 12.6644L20.4426 20.4426M51.5547 51.5547L59.3328 59.3328M43.3333 43.3333H43.37M30.5 34.1667H30.5367M34.1667 34.1667C34.1667 36.1918 32.5251 37.8333 30.5 37.8333C28.475 37.8333 26.8333 36.1918 26.8333 34.1667C26.8333 32.1416 28.475 30.5 30.5 30.5C32.5251 30.5 34.1667 32.1416 34.1667 34.1667Z" stroke="#228B22" stroke-width="6" stroke-linecap="round" stroke-linejoin="round"/>
</svg>
