<svg width="27" height="29" viewBox="0 0 27 29" fill="none" xmlns="http://www.w3.org/2000/svg">
<path d="M24.3759 21.5898C23.4942 20.6283 21.3588 19.2251 20.3228 18.6597C18.9735 17.9241 18.8625 17.864 17.8021 18.7167C17.0947 19.2858 16.6244 19.7942 15.7966 19.6031C14.9687 19.412 13.1698 18.3346 11.5946 16.6351C10.0194 14.9356 8.96618 12.9321 8.78904 12.0391C8.61191 11.1462 9.08944 10.6432 9.61021 9.87577C10.3443 8.79411 10.2887 8.61383 9.6613 7.15354C9.17218 6.01776 7.83799 3.72819 6.94626 2.77871C5.99238 1.75892 5.99239 1.93921 5.37776 2.21563C4.87737 2.4435 4.39731 2.72049 3.94361 3.04312C3.05525 3.68192 2.56221 4.21254 2.21741 5.00999C1.87261 5.80743 1.71771 7.67694 3.49832 11.178C5.27893 14.6791 6.52821 16.4692 9.11386 19.26C11.6995 22.0507 13.6878 23.5512 16.5944 25.3156C20.19 27.4952 21.5693 27.0703 22.3083 26.6978C23.0473 26.3252 23.5398 25.7964 24.131 24.8349C24.4299 24.3446 24.6864 23.8256 24.8973 23.2845C25.1532 22.6216 25.3198 22.6216 24.3759 21.5898Z" stroke="#fff" stroke-width="2.43738" stroke-miterlimit="10"/>
</svg>