                            <svg width="30" height="30" viewBox="0 0 30 30" fill="none" xmlns="http://www.w3.org/2000/svg">
                                <path fill-rule="evenodd" clip-rule="evenodd" d="M3.4884 15C3.4884 8.29367 8.79851 2.85714 15.3488 2.85714C21.8992 2.85714 27.2093 8.29367 27.2093 15C27.2093 21.7062 21.8992 27.1428 15.3488 27.1428C13.0155 27.1428 10.8436 26.4545 9.01114 25.2658C8.6701 25.0447 8.25221 24.9855 7.86536 25.1037L3.84794 26.3312L5.36056 22.7075C5.53934 22.2792 5.50296 21.7887 5.26308 21.393C4.13819 19.5371 3.4884 17.3484 3.4884 15ZM15.3488 0C7.25725 0 0.697704 6.71572 0.697704 15C0.697704 17.6258 1.3579 20.0975 2.51812 22.2467L0.112286 28.0099C-0.100396 28.5195 -0.00612356 29.1089 0.354169 29.5224C0.714462 29.9359 1.2758 30.0988 1.79441 29.9402L8.07267 28.0221C10.2174 29.2807 12.7028 29.9999 15.3488 29.9999C23.4405 29.9999 30 23.2842 30 15C30 6.71572 23.4405 0 15.3488 0ZM18.5477 18.1177L16.7139 19.4401C15.8551 18.9392 14.9055 18.2401 13.9531 17.265C12.9629 16.2513 12.2289 15.2047 11.6876 14.2447L12.853 13.232C13.3531 12.7974 13.49 12.0647 13.1819 11.4718L11.697 8.61467C11.497 8.22994 11.1365 7.9597 10.7179 7.88075C10.2993 7.80183 9.86834 7.92284 9.54763 8.2094L9.10739 8.60277C8.04869 9.54875 7.42256 11.1033 7.9415 12.6773C8.47951 14.309 9.62767 16.8771 11.9798 19.2852C14.5104 21.8761 17.0809 22.8964 18.5841 23.2927C19.7953 23.6118 20.9414 23.184 21.749 22.5102L22.5744 21.8217C22.9274 21.5272 23.1179 21.0748 23.0847 20.6098C23.0513 20.1448 22.7985 19.7257 22.4072 19.487L20.0654 18.0584C19.5924 17.77 18.998 17.7931 18.5477 18.1177Z" fill="white"/>
                                </svg>