<svg width="64" height="64" viewBox="0 0 64 64" fill="none" xmlns="http://www.w3.org/2000/svg">
<path d="M0 11.2C0 5.01441 5.01441 0 11.2 0H52.8C58.9856 0 64 5.01441 64 11.2V52.8C64 58.9856 58.9856 64 52.8 64H11.2C5.01441 64 0 58.9856 0 52.8V11.2Z" fill="#181818"/>
<path d="M17.4592 47.36V45.8035C17.9234 45.5305 18.4422 45.2983 19.0157 45.1072C19.5891 44.8887 20.1899 44.7249 20.8179 44.6157V21.4323C20.1899 21.2958 19.5755 21.1319 18.9747 20.9408C18.4013 20.7223 17.8961 20.4902 17.4592 20.2445V18.688H22.2106C22.6748 18.688 23.2482 18.6743 23.9309 18.647C24.6135 18.6197 25.3235 18.5924 26.0608 18.5651C26.7981 18.5105 27.5081 18.4695 28.1907 18.4422C28.9007 18.3876 29.5014 18.3603 29.993 18.3603C32.3686 18.3603 34.4849 18.6743 36.3418 19.3024C38.2259 19.9305 39.8097 20.8452 41.0931 22.0467C42.4038 23.2482 43.4005 24.7364 44.0832 26.5114C44.7932 28.2863 45.1482 30.3343 45.1482 32.6554C45.1482 34.9218 44.8205 36.9835 44.1651 38.8403C43.5098 40.6972 42.5267 42.281 41.216 43.5917C39.9053 44.9024 38.2396 45.9264 36.2189 46.6637C34.2255 47.3737 31.8771 47.7286 29.1738 47.7286C28.8188 47.7286 28.3409 47.7013 27.7402 47.6467C27.1394 47.6194 26.4977 47.5785 25.815 47.5238C25.1324 47.4965 24.4497 47.4556 23.767 47.401C23.0844 47.3737 22.4836 47.36 21.9648 47.36H17.4592ZM29.4605 21.0227C28.969 21.0227 28.4774 21.0364 27.9859 21.0637C27.4944 21.091 27.0711 21.1319 26.7162 21.1866V44.9024C26.8254 44.9297 27.0165 44.957 27.2896 44.9843C27.5627 44.9843 27.8357 44.998 28.1088 45.0253C28.4092 45.0253 28.6959 45.0389 28.969 45.0662C29.242 45.0662 29.4468 45.0662 29.5834 45.0662C31.1671 45.0662 32.5052 44.7386 33.5974 44.0832C34.717 43.4278 35.6318 42.5404 36.3418 41.4208C37.0517 40.3012 37.5706 38.9905 37.8982 37.4886C38.2259 35.9868 38.3898 34.3893 38.3898 32.6963C38.3898 31.1945 38.2123 29.7472 37.8573 28.3546C37.5296 26.9619 37.0108 25.7195 36.3008 24.6272C35.5908 23.5349 34.6624 22.6611 33.5155 22.0058C32.3959 21.3504 31.0443 21.0227 29.4605 21.0227Z" fill="white"/>
</svg>
