<svg width="32" height="32" viewBox="0 0 32 32" fill="none" xmlns="http://www.w3.org/2000/svg">
<path d="M0 5.6C0 2.50721 2.50721 0 5.6 0H26.4C29.4928 0 32 2.50721 32 5.6V26.4C32 29.4928 29.4928 32 26.4 32H5.6C2.50721 32 0 29.4928 0 26.4V5.6Z" fill="#181818"/>
<path d="M8.7296 23.68V22.9018C8.96171 22.7652 9.22112 22.6492 9.50784 22.5536C9.79456 22.4444 10.0949 22.3625 10.409 22.3078V10.7162C10.0949 10.6479 9.78773 10.566 9.48736 10.4704C9.20064 10.3612 8.94805 10.2451 8.7296 10.1222V9.344H11.1053C11.3374 9.344 11.6241 9.33717 11.9654 9.32352C12.3068 9.30987 12.6618 9.29621 13.0304 9.28256C13.399 9.25525 13.754 9.23477 14.0954 9.22112C14.4503 9.19381 14.7507 9.18016 14.9965 9.18016C16.1843 9.18016 17.2425 9.33717 18.1709 9.6512C19.113 9.96523 19.9049 10.4226 20.5466 11.0234C21.2019 11.6241 21.7003 12.3682 22.0416 13.2557C22.3966 14.1431 22.5741 15.1671 22.5741 16.3277C22.5741 17.4609 22.4102 18.4917 22.0826 19.4202C21.7549 20.3486 21.2634 21.1405 20.608 21.7958C19.9526 22.4512 19.1198 22.9632 18.1094 23.3318C17.1127 23.6868 15.9386 23.8643 14.5869 23.8643C14.4094 23.8643 14.1705 23.8507 13.8701 23.8234C13.5697 23.8097 13.2489 23.7892 12.9075 23.7619C12.5662 23.7483 12.2249 23.7278 11.8835 23.7005C11.5422 23.6868 11.2418 23.68 10.9824 23.68H8.7296ZM14.7302 10.5114C14.4845 10.5114 14.2387 10.5182 13.993 10.5318C13.7472 10.5455 13.5356 10.566 13.3581 10.5933V22.4512C13.4127 22.4649 13.5083 22.4785 13.6448 22.4922C13.7813 22.4922 13.9179 22.499 14.0544 22.5126C14.2046 22.5126 14.3479 22.5195 14.4845 22.5331C14.621 22.5331 14.7234 22.5331 14.7917 22.5331C15.5836 22.5331 16.2526 22.3693 16.7987 22.0416C17.3585 21.7139 17.8159 21.2702 18.1709 20.7104C18.5259 20.1506 18.7853 19.4953 18.9491 18.7443C19.113 17.9934 19.1949 17.1947 19.1949 16.3482C19.1949 15.5972 19.1061 14.8736 18.9286 14.1773C18.7648 13.481 18.5054 12.8597 18.1504 12.3136C17.7954 11.7675 17.3312 11.3306 16.7578 11.0029C16.198 10.6752 15.5221 10.5114 14.7302 10.5114Z" fill="white"/>
</svg>
